<?xml version="1.0" encoding="UTF-8" standalone="no"?><!DOCTYPE svg PUBLIC "-//W3C//DTD SVG 1.1//EN" "http://www.w3.org/Graphics/SVG/1.1/DTD/svg11.dtd"><svg width="100%" height="100%" viewBox="0 0 128 128" version="1.1" xmlns="http://www.w3.org/2000/svg" xmlns:xlink="http://www.w3.org/1999/xlink" xml:space="preserve" xmlns:serif="http://www.serif.com/" style="fill-rule:evenodd;clip-rule:evenodd;"><g><path d="M58.649,9.01l10.702,-0m-10.702,0.11l10.702,-0m-10.702,0.11l10.702,-0m-10.702,0.11l10.702,-0m-10.702,0.11l10.702,-0m-10.702,0.11l10.702,-0m-10.702,0.11l10.702,0m-10.702,0.11l10.702,0m-10.702,0.11l10.702,0m-10.702,0.11l10.702,0m-10.702,0.11l10.702,0m-10.702,0.111l10.702,-0m-10.702,0.11l10.702,-0m-10.702,0.11l10.702,-0m-10.702,0.11l10.702,-0m-10.702,0.11l10.702,-0m-10.702,0.11l10.702,-0m-10.702,0.11l10.702,0m-10.702,0.11l10.702,0m-10.702,0.11l10.702,0m-10.702,0.11l10.702,0m-10.702,0.11l10.702,0m-10.702,0.111l10.702,-0m-10.702,0.11l10.702,-0m-10.702,0.11l10.702,-0m-10.702,0.11l10.702,-0m-10.702,0.11l10.702,-0m-10.702,0.11l10.702,-0m-10.702,0.11l10.702,0m-10.702,0.11l10.702,0m-10.702,0.11l10.702,0m-10.702,0.11l10.702,0m-10.702,0.11l10.702,0m-10.702,0.111l10.702,-0m-10.702,0.11l10.702,-0m-10.702,0.11l10.702,-0m-10.702,0.11l10.702,-0m-10.702,0.11l10.702,-0m-10.702,0.11l10.702,-0m-10.702,0.11l10.702,0m-10.702,0.11l10.702,0m-10.702,0.11l10.702,0m-10.702,0.11l10.702,0m-10.702,0.11l10.702,0m-10.702,0.111l10.702,-0m-10.702,0.11l10.702,-0m-10.702,0.11l10.702,-0m-10.702,0.11l10.702,-0m-10.702,0.11l10.702,-0m-10.702,0.11l10.702,-0m-10.702,0.11l10.702,0m-10.702,0.11l10.702,0m-10.702,0.11l10.702,0m-10.702,0.11l10.702,0m-10.702,0.11l10.702,0m-10.702,0.111l10.702,-0m-10.702,0.11l10.702,-0m-10.702,0.11l10.702,-0m-10.702,0.11l10.702,-0m-10.702,0.11l10.702,-0m-10.702,0.11l10.702,-0m-10.702,0.11l10.702,0m-10.702,0.11l10.702,0m-10.702,0.11l10.702,0m-10.702,0.11l10.702,0m-10.702,0.11l10.702,0m-10.702,0.111l10.702,-0m-10.702,0.11l10.702,-0m-10.702,0.11l10.702,-0m-10.702,0.11l10.702,-0m-10.702,0.11l10.702,-0m-10.702,0.11l10.702,-0m-10.702,0.11l10.702,0m-10.702,0.11l10.702,0m-10.702,0.11l10.702,0m-10.702,0.11l10.702,0m-10.702,0.11l10.702,0m-10.702,0.111l10.702,-0m-10.702,0.11l10.702,-0m-10.702,0.11l10.702,-0m-10.702,0.11l10.702,-0m-10.702,0.11l10.702,-0m-10.702,0.11l10.702,-0m-10.702,0.11l10.702,0m-10.702,0.11l10.702,0m-10.702,0.11l10.702,0m-10.702,0.11l10.702,0m-10.702,0.11l10.702,0m-10.702,0.111l10.702,-0m-10.702,0.11l10.702,-0m-10.702,0.11l10.702,-0m-10.702,0.11l10.702,-0m-10.702,0.11l10.702,-0m-10.702,0.11l10.702,-0m-10.702,0.11l10.702,0m-10.702,0.11l10.702,0m-10.702,0.11l10.702,0m-10.702,0.11l10.702,0m-10.702,0.11l10.702,0m-10.702,0.111l10.702,-0m-10.702,0.11l10.702,-0m-10.702,0.11l10.702,-0m-10.702,0.11l10.702,-0m-10.702,0.11l10.702,-0m-10.702,0.11l10.702,-0m-10.702,0.11l10.702,0m-10.702,0.11l10.702,0m-10.702,0.11l10.702,0m-10.702,0.11l10.702,0m-10.702,0.11l10.702,0m-10.702,0.111l10.702,-0m-10.702,0.11l10.702,-0m-10.702,0.11l10.702,-0m-10.702,0.11l10.702,-0m-10.702,0.11l10.702,-0m-10.702,0.11l10.702,-0m-10.702,0.11l10.702,0m-10.702,0.11l10.702,0m-10.702,0.11l10.702,0m-10.702,0.11l10.702,0m-10.702,0.11l10.702,0m-10.702,0.111l10.702,-0m-10.702,0.11l10.702,-0m-10.702,0.11l10.702,-0m-10.702,0.11l10.702,-0m-10.702,0.11l10.702,-0m-10.702,0.11l10.702,-0m-10.702,0.11l10.702,0m-10.702,0.11l10.702,0m-10.702,0.11l10.702,0m-10.702,0.11l10.702,0m-10.702,0.11l10.702,0m-10.702,0.111l10.702,-0m-10.702,0.11l10.702,-0m-10.702,0.11l10.702,-0m-10.702,0.11l10.702,-0m-10.702,0.11l10.702,-0m-10.702,0.11l10.702,-0m-10.702,0.11l10.702,0m-10.702,0.11l10.702,0m-10.702,0.11l10.702,0m-10.702,0.11l10.702,0m-10.702,0.11l10.702,0m-10.702,0.111l10.702,-0m-10.702,0.11l10.702,-0m-10.702,0.11l10.702,-0m-10.702,0.11l10.702,-0m-10.702,0.11l10.702,-0m-10.702,0.11l10.702,-0m-10.702,0.11l10.702,0m-10.702,0.11l10.702,0m-10.702,0.11l10.702,0m-10.702,0.11l10.702,0m-10.702,0.11l10.702,0m-10.702,0.111l10.702,-0m-10.702,0.11l10.702,-0m-10.702,0.11l10.702,-0m-10.702,0.11l10.702,-0m-10.702,0.11l10.702,-0m-10.702,0.11l10.702,-0m-10.702,0.11l10.702,0m-10.702,0.11l10.702,0m-10.702,0.11l10.702,0m-10.702,0.11l10.702,0m-10.702,0.11l10.702,0m-10.702,0.111l10.702,-0m-10.702,0.11l10.702,-0m-10.702,0.11l10.702,-0m-10.702,0.11l10.702,-0m-10.702,0.11l10.702,-0m-10.702,0.11l10.702,-0m-10.702,0.11l10.702,0m-10.702,0.11l10.702,0m-10.702,0.11l10.702,0m-10.702,0.11l10.702,0m-10.702,0.11l10.702,0m-10.702,0.111l10.702,-0m-10.702,0.11l10.702,-0m-10.702,0.11l10.702,-0m-10.702,0.11l10.702,-0m-10.702,0.11l10.702,-0m-10.702,0.11l10.702,-0m-10.702,0.11l10.702,0m-10.702,0.11l10.702,0m-10.702,0.11l10.702,0m-10.702,0.11l10.702,0m-10.702,0.11l10.702,0m-10.702,0.111l10.702,-0m-10.702,0.11l10.702,-0m-10.702,0.11l10.702,-0m-10.702,0.11l10.702,-0m-10.702,0.11l10.702,-0m-10.702,0.11l10.702,0m-10.702,0.11l10.702,0m-10.702,0.11l10.702,0m-10.702,0.11l10.702,0m-10.702,0.11l10.702,0m-10.702,0.11l10.702,0m-10.702,0.111l10.702,-0m-10.702,0.11l10.702,-0m-21.403,0.11l10.701,-0m10.702,-0l10.701,-0m-32.104,0.11l10.701,-0m10.702,-0l10.701,-0m-32.104,0.11l10.701,-0m10.702,-0l10.701,-0m-32.104,0.11l10.701,0m10.702,0l10.701,0m-32.104,0.11l10.701,0m10.702,0l10.701,0m-32.104,0.11l10.701,0m10.702,0l10.701,0m-32.104,0.11l10.701,0m10.702,0l10.701,0m-32.104,0.11l10.701,0m10.702,0l10.701,0m-32.104,0.11l10.701,0m10.702,0l10.701,0m-32.104,0.111l10.701,-0m10.702,-0l10.701,-0m-32.104,0.11l10.701,-0m10.702,-0l10.701,-0m-32.104,0.11l10.701,-0m10.702,-0l10.701,-0m-32.104,0.11l10.701,-0m10.702,-0l10.701,-0m-32.104,0.11l10.701,-0m10.702,-0l10.701,-0m-32.104,0.11l10.701,0m10.702,0l10.701,0m-32.104,0.11l10.701,0m10.702,0l10.701,0m-32.104,0.11l10.701,0m10.702,0l10.701,0m-32.104,0.11l10.701,0m10.702,0l10.701,0m-32.104,0.11l10.701,0m10.702,0l10.701,0m-32.104,0.11l10.701,0m10.702,0l10.701,0m-32.104,0.111l10.701,-0m10.702,-0l10.701,-0m-32.104,0.11l10.701,-0m10.702,-0l10.701,-0m-32.104,0.11l10.701,-0m10.702,-0l10.701,-0m-32.104,0.11l10.701,-0m10.702,-0l10.701,-0m-32.104,0.11l10.701,-0m10.702,-0l10.701,-0m-32.104,0.11l10.701,0m10.702,0l10.701,0m-32.104,0.11l10.701,0m10.702,0l10.701,0m-32.104,0.11l10.701,0m10.702,0l10.701,0m-32.104,0.11l10.701,0m10.702,0l10.701,0m-32.104,0.11l10.701,0m10.702,0l10.701,0m-32.104,0.11l10.701,0m10.702,0l10.701,0m-32.104,0.111l10.701,-0m10.702,-0l10.701,-0m-32.104,0.11l10.701,-0m10.702,-0l10.701,-0m-32.104,0.11l10.701,-0m10.702,-0l10.701,-0m-32.104,0.11l10.701,-0m10.702,-0l10.701,-0m-32.104,0.11l10.701,-0m10.702,-0l10.701,-0m-32.104,0.11l10.701,0m10.702,0l10.701,0m-32.104,0.11l10.701,0m10.702,0l10.701,0m-32.104,0.11l10.701,0m10.702,0l10.701,0m-32.104,0.11l10.701,0m10.702,0l10.701,0m-32.104,0.11l10.701,0m10.702,0l10.701,0m-32.104,0.11l10.701,0m10.702,0l10.701,0m-32.104,0.111l10.701,-0m10.702,-0l10.701,-0m-32.104,0.11l10.701,-0m10.702,-0l10.701,-0m-32.104,0.11l10.701,-0m10.702,-0l10.701,-0m-32.104,0.11l10.701,-0m10.702,-0l10.701,-0m-32.104,0.11l10.701,-0m10.702,-0l10.701,-0m-32.104,0.11l10.701,0m10.702,0l10.701,0m-32.104,0.11l10.701,0m10.702,0l10.701,0m-32.104,0.11l10.701,0m10.702,0l10.701,0m-32.104,0.11l10.701,0m10.702,0l10.701,0m-32.104,0.11l10.701,0m10.702,0l10.701,0m-32.104,0.11l10.701,0m10.702,0l10.701,0m-32.104,0.111l10.701,-0m10.702,-0l10.701,-0m-32.104,0.11l10.701,-0m10.702,-0l10.701,-0m-32.104,0.11l10.701,-0m10.702,-0l10.701,-0m-32.104,0.11l10.701,-0m10.702,-0l10.701,-0m-32.104,0.11l10.701,-0m10.702,-0l10.701,-0m-32.104,0.11l10.701,0m10.702,0l10.701,0m-32.104,0.11l10.701,0m10.702,0l10.701,0m-32.104,0.11l10.701,0m10.702,0l10.701,0m-32.104,0.11l10.701,0m10.702,0l10.701,0m-32.104,0.11l10.701,0m10.702,0l10.701,0m-32.104,0.11l10.701,0m10.702,0l10.701,0m-32.104,0.111l10.701,-0m10.702,-0l10.701,-0m-32.104,0.11l10.701,-0m10.702,-0l10.701,-0m-32.104,0.11l10.701,-0m10.702,-0l10.701,-0m-32.104,0.11l10.701,-0m10.702,-0l10.701,-0m-32.104,0.11l10.701,-0m10.702,-0l10.701,-0m-32.104,0.11l10.701,0m10.702,0l10.701,0m-32.104,0.11l10.701,0m10.702,0l10.701,0m-32.104,0.11l10.701,0m10.702,0l10.701,0m-32.104,0.11l10.701,0m10.702,0l10.701,0m-32.104,0.11l10.701,0m10.702,0l10.701,0m-32.104,0.11l10.701,0m10.702,0l10.701,0m-32.104,0.111l10.701,-0m10.702,-0l10.701,-0m-32.104,0.11l10.701,-0m10.702,-0l10.701,-0m-32.104,0.11l10.701,-0m10.702,-0l10.701,-0m-32.104,0.11l10.701,-0m10.702,-0l10.701,-0m-32.104,0.11l10.701,-0m10.702,-0l10.701,-0m-32.104,0.11l10.701,0m10.702,0l10.701,0m-32.104,0.11l10.701,0m10.702,0l10.701,0m-32.104,0.11l10.701,0m10.702,0l10.701,0m-32.104,0.11l10.701,0m10.702,0l10.701,0m-32.104,0.11l10.701,0m10.702,0l10.701,0m-32.104,0.11l10.701,0m10.702,0l10.701,0m-32.104,0.111l10.701,-0m10.702,-0l10.701,-0m-32.104,0.11l10.701,-0m10.702,-0l10.701,-0m-32.104,0.11l10.701,-0m10.702,-0l10.701,-0m-32.104,0.11l10.701,-0m10.702,-0l10.701,-0m-32.104,0.11l10.701,-0m10.702,-0l10.701,-0m-32.104,0.11l10.701,0m10.702,0l10.701,0m-32.104,0.11l10.701,0m10.702,0l10.701,0m-32.104,0.11l10.701,0m10.702,0l10.701,0m-32.104,0.11l10.701,0m10.702,0l10.701,0m-32.104,0.11l10.701,0m10.702,0l10.701,0m-32.104,0.11l10.701,0m10.702,0l10.701,0m-32.104,0.111l10.701,-0m10.702,-0l10.701,-0m-32.104,0.11l10.701,-0m10.702,-0l10.701,-0m-32.104,0.11l10.701,-0m10.702,-0l10.701,-0m-32.104,0.11l10.701,-0m10.702,-0l10.701,-0m-32.104,0.11l10.701,-0m10.702,-0l10.701,-0m-32.104,0.11l10.701,0m10.702,0l10.701,0m-32.104,0.11l10.701,0m10.702,0l10.701,0m-32.104,0.11l10.701,0m10.702,0l10.701,0m-32.104,0.11l10.701,0m10.702,0l10.701,0m-32.104,0.11l10.701,0m10.702,0l10.701,0m-32.104,0.11l10.701,0m10.702,0l10.701,0m-32.104,0.111l10.701,-0m10.702,-0l10.701,-0m-32.104,0.11l10.701,-0m10.702,-0l10.701,-0m-32.104,0.11l10.701,-0m10.702,-0l10.701,-0m-32.104,0.11l10.701,-0m10.702,-0l10.701,-0m-32.104,0.11l10.701,-0m10.702,-0l10.701,-0m-32.104,0.11l10.701,0m10.702,0l10.701,0m-32.104,0.11l10.701,0m10.702,0l10.701,0m-32.104,0.11l10.701,0m10.702,0l10.701,0m-32.104,0.11l10.701,0m10.702,0l10.701,0m-32.104,0.11l10.701,0m10.702,0l10.701,0m-32.104,0.11l10.701,0m10.702,0l10.701,0m-32.104,0.111l10.701,-0m10.702,-0l10.701,-0m-32.104,0.11l10.701,-0m10.702,-0l10.701,-0m-32.104,0.11l10.701,-0m10.702,-0l10.701,-0m-32.104,0.11l10.701,-0m10.702,-0l10.701,-0m-32.104,0.11l10.701,-0m10.702,-0l10.701,-0m-32.104,0.11l10.701,0m10.702,0l10.701,0m-32.104,0.11l10.701,0m10.702,0l10.701,0m-32.104,0.11l10.701,0m10.702,0l10.701,0m-32.104,0.11l10.701,0m10.702,0l10.701,0m-32.104,0.11l10.701,0m10.702,0l10.701,0m-32.104,0.11l10.701,0m10.702,0l10.701,0m-32.104,0.111l10.701,-0m10.702,-0l10.701,-0m-32.104,0.11l10.701,-0m10.702,-0l10.701,-0m-32.104,0.11l10.701,-0m10.702,-0l10.701,-0m-32.104,0.11l10.701,-0m10.702,-0l10.701,-0m-32.104,0.11l10.701,-0m10.702,-0l10.701,-0m-32.104,0.11l10.701,0m10.702,0l10.701,0m-32.104,0.11l10.701,0m10.702,0l10.701,0m-32.104,0.11l10.701,0m10.702,0l10.701,0m-32.104,0.11l10.701,0m10.702,0l10.701,0m-32.104,0.11l10.701,0m10.702,0l10.701,0m-32.104,0.11l10.701,0m10.702,0l10.701,0m-32.104,0.111l10.701,-0m10.702,-0l10.701,-0m-32.104,0.11l10.701,-0m10.702,-0l10.701,-0m-32.104,0.11l10.701,-0m10.702,-0l10.701,-0m-32.104,0.11l10.701,-0m10.702,-0l10.701,-0m-32.104,0.11l10.701,-0m10.702,-0l10.701,-0m-32.104,0.11l10.701,0m10.702,0l10.701,0m-32.104,0.11l10.701,0m10.702,0l10.701,0m-32.104,0.11l10.701,0m10.702,0l10.701,0m-32.104,0.11l10.701,0m10.702,0l10.701,0m-32.104,0.11l10.701,0m10.702,0l10.701,0m-32.104,0.11l10.701,0m10.702,0l10.701,0m-32.104,0.111l10.701,-0m10.702,-0l10.701,-0m-32.104,0.11l10.701,-0m10.702,-0l10.701,-0m-32.104,0.11l10.701,-0m10.702,-0l10.701,-0m-32.104,0.11l10.701,-0m10.702,-0l10.701,-0m-32.104,0.11l10.701,-0m10.702,-0l10.701,-0m-32.104,0.11l10.701,0m10.702,0l10.701,0m-32.104,0.11l10.701,0m10.702,0l10.701,0m-32.104,0.11l10.701,0m10.702,0l10.701,0m-32.104,0.11l10.701,0m10.702,0l10.701,0m-32.104,0.11l10.701,0m10.702,0l10.701,0m-32.104,0.11l10.701,0m10.702,0l10.701,0m-32.104,0.111l10.701,-0m10.702,-0l10.701,-0m-32.104,0.11l10.701,-0m10.702,-0l10.701,-0m-32.104,0.11l10.701,-0m10.702,-0l10.701,-0m-32.104,0.11l10.701,-0m10.702,-0l10.701,-0m-32.104,0.11l10.701,-0m10.702,-0l10.701,-0m-32.104,0.11l10.701,0m10.702,0l10.701,0m-32.104,0.11l10.701,0m10.702,0l10.701,0m-32.104,0.11l10.701,0m10.702,0l10.701,0m-32.104,0.11l10.701,0m10.702,0l10.701,0m-32.104,0.11l10.701,0m10.702,0l10.701,0m-32.104,0.11l10.701,0m10.702,0l10.701,0m-32.104,0.111l10.701,-0m10.702,-0l10.701,-0m-32.104,0.11l10.701,-0m10.702,-0l10.701,-0m-32.104,0.11l10.701,-0m10.702,-0l10.701,-0m-32.104,0.11l10.701,-0m10.702,-0l10.701,-0m-32.104,0.11l10.701,-0m10.702,-0l10.701,-0m-32.104,0.11l10.701,0m10.702,0l10.701,0m-32.104,0.11l10.701,0m10.702,0l10.701,0m-32.104,0.11l10.701,0m10.702,0l10.701,0m-32.104,0.11l10.701,0m10.702,0l10.701,0m-32.104,0.11l10.701,0m10.702,0l10.701,0m-32.104,0.11l10.701,0m10.702,0l10.701,0m-32.104,0.111l10.701,-0m10.702,-0l10.701,-0m-32.104,0.11l10.701,-0m10.702,-0l10.701,-0m-32.104,0.11l10.701,-0m10.702,-0l10.701,-0m-32.104,0.11l10.701,-0m10.702,-0l10.701,-0m-32.104,0.11l10.701,-0m10.702,-0l10.701,-0m-32.104,0.11l10.701,0m10.702,0l10.701,0m-32.104,0.11l10.701,0m10.702,0l10.701,0m-32.104,0.11l10.701,0m10.702,0l10.701,0m-32.104,0.11l10.701,0m10.702,0l10.701,0m-32.104,0.11l10.701,0m10.702,0l10.701,0m-32.104,0.11l10.701,0m10.702,0l10.701,0m-32.104,0.111l10.701,-0m10.702,-0l10.701,-0m-32.104,0.11l10.701,-0m10.702,-0l10.701,-0m-32.104,0.11l10.701,-0m10.702,-0l10.701,-0m-32.104,0.11l10.701,-0m10.702,-0l10.701,-0m-42.805,0.11l10.701,-0m32.104,-0l10.701,-0m-53.506,0.11l10.701,0m32.104,0l10.701,0m-53.506,0.11l10.701,0m32.104,0l10.701,0m-53.506,0.11l10.701,0m32.104,0l10.701,0m-53.506,0.11l10.701,0m32.104,0l10.701,0m-53.506,0.11l10.701,0m32.104,0l10.701,0m-53.506,0.11l10.701,0m32.104,0l10.701,0m-53.506,0.111l10.701,-0m32.104,-0l10.701,-0m-53.506,0.11l10.701,-0m32.104,-0l10.701,-0m-53.506,0.11l10.701,-0m32.104,-0l10.701,-0m-53.506,0.11l10.701,-0m32.104,-0l10.701,-0m-53.506,0.11l10.701,-0m32.104,-0l10.701,-0m-53.506,0.11l10.701,0m32.104,0l10.701,0m-53.506,0.11l10.701,0m32.104,0l10.701,0m-53.506,0.11l10.701,0m32.104,0l10.701,0m-53.506,0.11l10.701,0m32.104,0l10.701,0m-53.506,0.11l10.701,0m32.104,0l10.701,0m-53.506,0.11l10.701,0m32.104,0l10.701,0m-53.506,0.111l10.701,-0m32.104,-0l10.701,-0m-53.506,0.11l10.701,-0m32.104,-0l10.701,-0m-53.506,0.11l10.701,-0m32.104,-0l10.701,-0m-53.506,0.11l10.701,-0m32.104,-0l10.701,-0m-53.506,0.11l10.701,-0m32.104,-0l10.701,-0m-53.506,0.11l10.701,0m32.104,0l10.701,0m-53.506,0.11l10.701,0m32.104,0l10.701,0m-53.506,0.11l10.701,0m32.104,0l10.701,0m-53.506,0.11l10.701,0m32.104,0l10.701,0m-53.506,0.11l10.701,0m32.104,0l10.701,0m-53.506,0.11l10.701,0m32.104,0l10.701,0m-53.506,0.111l10.701,-0m32.104,-0l10.701,-0m-53.506,0.11l10.701,-0m32.104,-0l10.701,-0m-53.506,0.11l10.701,-0m32.104,-0l10.701,-0m-53.506,0.11l10.701,-0m32.104,-0l10.701,-0m-53.506,0.11l10.701,-0m32.104,-0l10.701,-0m-53.506,0.11l10.701,0m32.104,0l10.701,0m-53.506,0.11l10.701,0m32.104,0l10.701,0m-53.506,0.11l10.701,0m32.104,0l10.701,0m-53.506,0.11l10.701,0m32.104,0l10.701,0m-53.506,0.11l10.701,0m32.104,0l10.701,0m-53.506,0.11l10.701,0m32.104,0l10.701,0m-53.506,0.111l10.701,-0m32.104,-0l10.701,-0m-53.506,0.11l10.701,-0m32.104,-0l10.701,-0m-53.506,0.11l10.701,-0m32.104,-0l10.701,-0m-53.506,0.11l10.701,-0m32.104,-0l10.701,-0m-53.506,0.11l10.701,-0m32.104,-0l10.701,-0m-53.506,0.11l10.701,0m32.104,0l10.701,0m-53.506,0.11l10.701,0m32.104,0l10.701,0m-53.506,0.11l10.701,0m32.104,0l10.701,0m-53.506,0.11l10.701,0m32.104,0l10.701,0m-53.506,0.11l10.701,0m32.104,0l10.701,0m-53.506,0.11l10.701,0m32.104,0l10.701,0m-53.506,0.111l10.701,-0m32.104,-0l10.701,-0m-53.506,0.11l10.701,-0m32.104,-0l10.701,-0m-53.506,0.11l10.701,-0m32.104,-0l10.701,-0m-53.506,0.11l10.701,-0m32.104,-0l10.701,-0m-53.506,0.11l10.701,-0m32.104,-0l10.701,-0m-53.506,0.11l10.701,0m32.104,0l10.701,0m-53.506,0.11l10.701,0m32.104,0l10.701,0m-53.506,0.11l10.701,0m32.104,0l10.701,0m-53.506,0.11l10.701,0m32.104,0l10.701,0m-53.506,0.11l10.701,0m32.104,0l10.701,0m-53.506,0.11l10.701,0m32.104,0l10.701,0m-53.506,0.111l10.701,-0m32.104,-0l10.701,-0m-53.506,0.11l10.701,-0m32.104,-0l10.701,-0m-53.506,0.11l10.701,-0m32.104,-0l10.701,-0m-53.506,0.11l10.701,-0m32.104,-0l10.701,-0m-53.506,0.11l10.701,-0m32.104,-0l10.701,-0m-53.506,0.11l10.701,0m32.104,0l10.701,0m-53.506,0.11l10.701,0m32.104,0l10.701,0m-53.506,0.11l10.701,0m32.104,0l10.701,0m-53.506,0.11l10.701,0m32.104,0l10.701,0m-53.506,0.11l10.701,0m32.104,0l10.701,0m-53.506,0.11l10.701,0m32.104,0l10.701,0m-53.506,0.111l10.701,-0m32.104,-0l10.701,-0m-53.506,0.11l10.701,-0m32.104,-0l10.701,-0m-53.506,0.11l10.701,-0m32.104,-0l10.701,-0m-53.506,0.11l10.701,-0m32.104,-0l10.701,-0m-53.506,0.11l10.701,-0m32.104,-0l10.701,-0m-53.506,0.11l10.701,0m32.104,0l10.701,0m-53.506,0.11l10.701,0m32.104,0l10.701,0m-53.506,0.11l10.701,0m32.104,0l10.701,0m-53.506,0.11l10.701,0m32.104,0l10.701,0m-53.506,0.11l10.701,0m32.104,0l10.701,0m-53.506,0.11l10.701,0m32.104,0l10.701,0m-53.506,0.111l10.701,-0m32.104,-0l10.701,-0m-53.506,0.11l10.701,-0m32.104,-0l10.701,-0m-53.506,0.11l10.701,-0m32.104,-0l10.701,-0m-53.506,0.11l10.701,-0m32.104,-0l10.701,-0m-53.506,0.11l10.701,-0m32.104,-0l10.701,-0m-53.506,0.11l10.701,0m32.104,0l10.701,0m-53.506,0.11l10.701,0m32.104,0l10.701,0m-53.506,0.11l10.701,0m32.104,0l10.701,0m-53.506,0.11l10.701,0m32.104,0l10.701,0m-53.506,0.11l10.701,0m32.104,0l10.701,0m-53.506,0.11l10.701,0m32.104,0l10.701,0m-53.506,0.111l10.701,-0m32.104,-0l10.701,-0m-53.506,0.11l10.701,-0m32.104,-0l10.701,-0m-53.506,0.11l10.701,-0m32.104,-0l10.701,-0m-53.506,0.11l10.701,-0m32.104,-0l10.701,-0m-53.506,0.11l10.701,-0m32.104,-0l10.701,-0m-53.506,0.11l10.701,0m32.104,0l10.701,0m-53.506,0.11l10.701,0m32.104,0l10.701,0m-53.506,0.11l10.701,0m32.104,0l10.701,0m-53.506,0.11l10.701,0m32.104,0l10.701,0m-53.506,0.11l10.701,0m32.104,0l10.701,0m-53.506,0.111l10.701,-0m32.104,-0l10.701,-0m-53.506,0.11l10.701,-0m32.104,-0l10.701,-0m-53.506,0.11l10.701,-0m32.104,-0l10.701,-0m-53.506,0.11l10.701,-0m32.104,-0l10.701,-0m-53.506,0.11l10.701,-0m32.104,-0l10.701,-0m-53.506,0.11l10.701,-0m32.104,-0l10.701,-0m-53.506,0.11l10.701,0m32.104,0l10.701,0m-53.506,0.11l10.701,0m32.104,0l10.701,0m-53.506,0.11l10.701,0m32.104,0l10.701,0m-53.506,0.11l10.701,0m32.104,0l10.701,0m-53.506,0.11l10.701,0m32.104,0l10.701,0m-53.506,0.111l10.701,-0m32.104,-0l10.701,-0m-53.506,0.11l10.701,-0m32.104,-0l10.701,-0m-53.506,0.11l10.701,-0m32.104,-0l10.701,-0m-53.506,0.11l10.701,-0m32.104,-0l10.701,-0m-53.506,0.11l10.701,-0m32.104,-0l10.701,-0m-53.506,0.11l10.701,-0m32.104,-0l10.701,-0m-53.506,0.11l10.701,0m32.104,0l10.701,0m-53.506,0.11l10.701,0m32.104,0l10.701,0m-53.506,0.11l10.701,0m32.104,0l10.701,0m-53.506,0.11l10.701,0m32.104,0l10.701,0m-53.506,0.11l10.701,0m32.104,0l10.701,0m-53.506,0.111l10.701,-0m32.104,-0l10.701,-0m-53.506,0.11l10.701,-0m32.104,-0l10.701,-0m-53.506,0.11l10.701,-0m32.104,-0l10.701,-0m-53.506,0.11l10.701,-0m32.104,-0l10.701,-0m-53.506,0.11l10.701,-0m32.104,-0l10.701,-0m-53.506,0.11l10.701,-0m32.104,-0l10.701,-0m-53.506,0.11l10.701,0m32.104,0l10.701,0m-53.506,0.11l10.701,0m32.104,0l10.701,0m-53.506,0.11l10.701,0m32.104,0l10.701,0m-53.506,0.11l10.701,0m32.104,0l10.701,0m-53.506,0.11l10.701,0m32.104,0l10.701,0m-53.506,0.111l10.701,-0m32.104,-0l10.701,-0m-53.506,0.11l10.701,-0m32.104,-0l10.701,-0m-53.506,0.11l10.701,-0m32.104,-0l10.701,-0m-53.506,0.11l10.701,-0m32.104,-0l10.701,-0m-53.506,0.11l10.701,-0m32.104,-0l10.701,-0m-53.506,0.11l10.701,-0m32.104,-0l10.701,-0m-53.506,0.11l10.701,0m32.104,0l10.701,0m-53.506,0.11l10.701,0m32.104,0l10.701,0m-53.506,0.11l10.701,0m32.104,0l10.701,0m-53.506,0.11l10.701,0m32.104,0l10.701,0m-53.506,0.11l10.701,0m32.104,0l10.701,0m-53.506,0.111l10.701,-0m32.104,-0l10.701,-0m-53.506,0.11l10.701,-0m32.104,-0l10.701,-0m-53.506,0.11l10.701,-0m32.104,-0l10.701,-0m-53.506,0.11l10.701,-0m32.104,-0l10.701,-0m-53.506,0.11l10.701,-0m32.104,-0l10.701,-0m-53.506,0.11l10.701,-0m32.104,-0l10.701,-0m-53.506,0.11l10.701,0m32.104,0l10.701,0m-53.506,0.11l10.701,0m32.104,0l10.701,0m-53.506,0.11l10.701,0m32.104,0l10.701,0m-53.506,0.11l10.701,0m32.104,0l10.701,0m-53.506,0.11l10.701,0m32.104,0l10.701,0m-53.506,0.111l10.701,-0m32.104,-0l10.701,-0m-53.506,0.11l10.701,-0m32.104,-0l10.701,-0m-53.506,0.11l10.701,-0m32.104,-0l10.701,-0m-53.506,0.11l10.701,-0m32.104,-0l10.701,-0m-53.506,0.11l10.701,-0m32.104,-0l10.701,-0m-53.506,0.11l10.701,-0m32.104,-0l10.701,-0m-53.506,0.11l10.701,0m32.104,0l10.701,0m-53.506,0.11l10.701,0m32.104,0l10.701,0m-53.506,0.11l10.701,0m32.104,0l10.701,0m-53.506,0.11l10.701,0m32.104,0l10.701,0m-53.506,0.11l10.701,0m32.104,0l10.701,0m-53.506,0.111l10.701,-0m32.104,-0l10.701,-0m-53.506,0.11l10.701,-0m32.104,-0l10.701,-0m-53.506,0.11l10.701,-0m32.104,-0l10.701,-0m-53.506,0.11l10.701,-0m32.104,-0l10.701,-0m-53.506,0.11l10.701,-0m32.104,-0l10.701,-0m-53.506,0.11l10.701,-0m32.104,-0l10.701,-0m-53.506,0.11l10.701,0m32.104,0l10.701,0m-53.506,0.11l10.701,0m32.104,0l10.701,0m-53.506,0.11l10.701,0m32.104,0l10.701,0m-53.506,0.11l10.701,0m32.104,0l10.701,0m-53.506,0.11l10.701,0m32.104,0l10.701,0m-53.506,0.111l10.701,-0m32.104,-0l10.701,-0m-53.506,0.11l10.701,-0m32.104,-0l10.701,-0m-53.506,0.11l10.701,-0m32.104,-0l10.701,-0m-53.506,0.11l10.701,-0m32.104,-0l10.701,-0m-53.506,0.11l10.701,-0m32.104,-0l10.701,-0m-53.506,0.11l10.701,-0m32.104,-0l10.701,-0m-53.506,0.11l10.701,0m32.104,0l10.701,0m-53.506,0.11l10.701,0m32.104,0l10.701,0m-53.506,0.11l10.701,0m32.104,0l10.701,0m-53.506,0.11l10.701,0m32.104,0l10.701,0m-53.506,0.11l10.701,0m32.104,0l10.701,0m-53.506,0.111l10.701,-0m32.104,-0l10.701,-0m-53.506,0.11l10.701,-0m32.104,-0l10.701,-0m-53.506,0.11l10.701,-0m32.104,-0l10.701,-0m-53.506,0.11l10.701,-0m32.104,-0l10.701,-0m-53.506,0.11l10.701,-0m32.104,-0l10.701,-0m-53.506,0.11l10.701,-0m32.104,-0l10.701,-0m-53.506,0.11l10.701,0m32.104,0l10.701,0m-64.207,0.11l10.701,0m53.506,0l10.701,0m-74.908,0.11l10.701,0m53.506,0l10.701,0m-74.908,0.11l10.701,0m53.506,0l10.701,0m-74.908,0.11l10.701,0m53.506,0l10.701,0m-74.908,0.111l10.701,-0m53.506,-0l10.701,-0m-74.908,0.11l10.701,-0m53.506,-0l10.701,-0m-74.908,0.11l10.701,-0m53.506,-0l10.701,-0m-74.908,0.11l10.701,-0m53.506,-0l10.701,-0m-74.908,0.11l10.701,-0m53.506,-0l10.701,-0m-74.908,0.11l10.701,-0m53.506,-0l10.701,-0m-74.908,0.11l10.701,0m53.506,0l10.701,0m-74.908,0.11l10.701,0m53.506,0l10.701,0m-74.908,0.11l10.701,0m53.506,0l10.701,0m-74.908,0.11l10.701,0m53.506,0l10.701,0m-74.908,0.11l10.701,0m53.506,0l10.701,0m-74.908,0.111l10.701,-0m53.506,-0l10.701,-0m-74.908,0.11l10.701,-0m53.506,-0l10.701,-0m-74.908,0.11l10.701,-0m53.506,-0l10.701,-0m-74.908,0.11l10.701,-0m53.506,-0l10.701,-0m-74.908,0.11l10.701,-0m53.506,-0l10.701,-0m-74.908,0.11l10.701,-0m53.506,-0l10.701,-0m-74.908,0.11l10.701,0m53.506,0l10.701,0m-74.908,0.11l10.701,0m53.506,0l10.701,0m-74.908,0.11l10.701,0m53.506,0l10.701,0m-74.908,0.11l10.701,0m53.506,0l10.701,0m-74.908,0.11l10.701,0m53.506,0l10.701,0m-74.908,0.111l10.701,-0m53.506,-0l10.701,-0m-74.908,0.11l10.701,-0m53.506,-0l10.701,-0m-74.908,0.11l10.701,-0m53.506,-0l10.701,-0m-74.908,0.11l10.701,-0m53.506,-0l10.701,-0m-74.908,0.11l10.701,-0m53.506,-0l10.701,-0m-74.908,0.11l10.701,-0m53.506,-0l10.701,-0m-74.908,0.11l10.701,0m53.506,0l10.701,0m-74.908,0.11l10.701,0m53.506,0l10.701,0m-74.908,0.11l10.701,0m53.506,0l10.701,0m-74.908,0.11l10.701,0m53.506,0l10.701,0m-74.908,0.11l10.701,0m53.506,0l10.701,0m-74.908,0.111l10.701,-0m53.506,-0l10.701,-0m-74.908,0.11l10.701,-0m53.506,-0l10.701,-0m-74.908,0.11l10.701,-0m53.506,-0l10.701,-0m-74.908,0.11l10.701,-0m53.506,-0l10.701,-0m-74.908,0.11l10.701,-0m53.506,-0l10.701,-0m-74.908,0.11l10.701,-0m53.506,-0l10.701,-0m-74.908,0.11l10.701,0m53.506,0l10.701,0m-74.908,0.11l10.701,0m53.506,0l10.701,0m-74.908,0.11l10.701,0m53.506,0l10.701,0m-74.908,0.11l10.701,0m53.506,0l10.701,0m-74.908,0.11l10.701,0m53.506,0l10.701,0m-74.908,0.111l10.701,-0m53.506,-0l10.701,-0m-74.908,0.11l10.701,-0m53.506,-0l10.701,-0m-74.908,0.11l10.701,-0m53.506,-0l10.701,-0m-74.908,0.11l10.701,-0m53.506,-0l10.701,-0m-74.908,0.11l10.701,-0m53.506,-0l10.701,-0m-74.908,0.11l10.701,-0m53.506,-0l10.701,-0m-74.908,0.11l10.701,0m53.506,0l10.701,0m-74.908,0.11l10.701,0m53.506,0l10.701,0m-74.908,0.11l10.701,0m53.506,0l10.701,0m-74.908,0.11l10.701,0m53.506,0l10.701,0m-74.908,0.11l10.701,0m53.506,0l10.701,0m-74.908,0.111l10.701,-0m53.506,-0l10.701,-0m-74.908,0.11l10.701,-0m53.506,-0l10.701,-0m-74.908,0.11l10.701,-0m53.506,-0l10.701,-0m-74.908,0.11l10.701,-0m53.506,-0l10.701,-0m-74.908,0.11l10.701,-0m53.506,-0l10.701,-0m-74.908,0.11l10.701,-0m53.506,-0l10.701,-0m-74.908,0.11l10.701,0m53.506,0l10.701,0m-74.908,0.11l10.701,0m53.506,0l10.701,0m-74.908,0.11l10.701,0m53.506,0l10.701,0m-74.908,0.11l10.701,0m53.506,0l10.701,0m-74.908,0.11l10.701,0m53.506,0l10.701,0m-74.908,0.111l10.701,-0m53.506,-0l10.701,-0m-74.908,0.11l10.701,-0m53.506,-0l10.701,-0m-74.908,0.11l10.701,-0m53.506,-0l10.701,-0m-74.908,0.11l10.701,-0m53.506,-0l10.701,-0m-74.908,0.11l10.701,-0m53.506,-0l10.701,-0m-74.908,0.11l10.701,-0m53.506,-0l10.701,-0m-74.908,0.11l10.701,0m53.506,0l10.701,0m-74.908,0.11l10.701,0m53.506,0l10.701,0m-74.908,0.11l10.701,0m53.506,0l10.701,0m-74.908,0.11l10.701,0m53.506,0l10.701,0m-74.908,0.11l10.701,0m53.506,0l10.701,0m-74.908,0.111l10.701,-0m53.506,-0l10.701,-0m-74.908,0.11l10.701,-0m53.506,-0l10.701,-0m-74.908,0.11l10.701,-0m53.506,-0l10.701,-0m-74.908,0.11l10.701,-0m53.506,-0l10.701,-0m-74.908,0.11l10.701,-0m53.506,-0l10.701,-0m-74.908,0.11l10.701,-0m53.506,-0l10.701,-0m-74.908,0.11l10.701,0m53.506,0l10.701,0m-74.908,0.11l10.701,0m53.506,0l10.701,0m-74.908,0.11l10.701,0m53.506,0l10.701,0m-74.908,0.11l10.701,0m53.506,0l10.701,0m-74.908,0.11l10.701,0m53.506,0l10.701,0m-74.908,0.111l10.701,-0m53.506,-0l10.701,-0m-74.908,0.11l10.701,-0m53.506,-0l10.701,-0m-74.908,0.11l10.701,-0m53.506,-0l10.701,-0m-74.908,0.11l10.701,-0m53.506,-0l10.701,-0m-74.908,0.11l10.701,-0m53.506,-0l10.701,-0m-74.908,0.11l10.701,-0m53.506,-0l10.701,-0m-74.908,0.11l10.701,0m53.506,0l10.701,0m-74.908,0.11l10.701,0m53.506,0l10.701,0m-74.908,0.11l10.701,0m53.506,0l10.701,0m-74.908,0.11l10.701,0m53.506,0l10.701,0m-74.908,0.11l10.701,0m53.506,0l10.701,0m-74.908,0.111l10.701,-0m53.506,-0l10.701,-0m-74.908,0.11l10.701,-0m53.506,-0l10.701,-0m-74.908,0.11l10.701,-0m53.506,-0l10.701,-0m-74.908,0.11l10.701,-0m53.506,-0l10.701,-0m-74.908,0.11l10.701,-0m53.506,-0l10.701,-0m-74.908,0.11l10.701,-0m53.506,-0l10.701,-0m-74.908,0.11l10.701,0m53.506,0l10.701,0m-74.908,0.11l10.701,0m53.506,0l10.701,0m-74.908,0.11l10.701,0m53.506,0l10.701,0m-74.908,0.11l10.701,0m53.506,0l10.701,0m-74.908,0.11l10.701,0m53.506,0l10.701,0m-74.908,0.111l10.701,-0m53.506,-0l10.701,-0m-74.908,0.11l10.701,-0m53.506,-0l10.701,-0m-74.908,0.11l10.701,-0m53.506,-0l10.701,-0m-74.908,0.11l10.701,-0m53.506,-0l10.701,-0m-74.908,0.11l10.701,-0m53.506,-0l10.701,-0m-74.908,0.11l10.701,-0m53.506,-0l10.701,-0m-74.908,0.11l10.701,0m53.506,0l10.701,0m-74.908,0.11l10.701,0m53.506,0l10.701,0m-74.908,0.11l10.701,0m53.506,0l10.701,0m-74.908,0.11l10.701,0m53.506,0l10.701,0m-74.908,0.11l10.701,0m53.506,0l10.701,0m-74.908,0.111l10.701,-0m53.506,-0l10.701,-0m-74.908,0.11l10.701,-0m53.506,-0l10.701,-0m-74.908,0.11l10.701,-0m53.506,-0l10.701,-0m-74.908,0.11l10.701,-0m53.506,-0l10.701,-0m-74.908,0.11l10.701,-0m53.506,-0l10.701,-0m-74.908,0.11l10.701,-0m53.506,-0l10.701,-0m-74.908,0.11l10.701,0m53.506,0l10.701,0m-74.908,0.11l10.701,0m53.506,0l10.701,0m-74.908,0.11l10.701,0m53.506,0l10.701,0m-74.908,0.11l10.701,0m53.506,0l10.701,0m-74.908,0.11l10.701,0m53.506,0l10.701,0m-74.908,0.111l10.701,-0m53.506,-0l10.701,-0m-74.908,0.11l10.701,-0m53.506,-0l10.701,-0m-74.908,0.11l10.701,-0m53.506,-0l10.701,-0m-74.908,0.11l10.701,-0m53.506,-0l10.701,-0m-74.908,0.11l10.701,-0m53.506,-0l10.701,-0m-74.908,0.11l10.701,-0m53.506,-0l10.701,-0m-74.908,0.11l10.701,0m53.506,0l10.701,0m-74.908,0.11l10.701,0m53.506,0l10.701,0m-74.908,0.11l10.701,0m53.506,0l10.701,0m-74.908,0.11l10.701,0m53.506,0l10.701,0m-74.908,0.11l10.701,0m53.506,0l10.701,0m-74.908,0.111l10.701,-0m53.506,-0l10.701,-0m-74.908,0.11l10.701,-0m53.506,-0l10.701,-0m-74.908,0.11l10.701,-0m53.506,-0l10.701,-0m-74.908,0.11l10.701,-0m53.506,-0l10.701,-0m-74.908,0.11l10.701,-0m53.506,-0l10.701,-0m-74.908,0.11l10.701,-0m53.506,-0l10.701,-0m-74.908,0.11l10.701,0m53.506,0l10.701,0m-74.908,0.11l10.701,0m53.506,0l10.701,0m-74.908,0.11l10.701,0m53.506,0l10.701,0m-74.908,0.11l10.701,0m53.506,0l10.701,0m-74.908,0.11l10.701,0m53.506,0l10.701,0m-74.908,0.111l10.701,-0m53.506,-0l10.701,-0m-74.908,0.11l10.701,-0m53.506,-0l10.701,-0m-74.908,0.11l10.701,-0m53.506,-0l10.701,-0m-74.908,0.11l10.701,-0m53.506,-0l10.701,-0m-74.908,0.11l10.701,-0m53.506,-0l10.701,-0m-74.908,0.11l10.701,-0m53.506,-0l10.701,-0m-74.908,0.11l10.701,0m53.506,0l10.701,0m-74.908,0.11l10.701,0m53.506,0l10.701,0m-74.908,0.11l10.701,0m53.506,0l10.701,0m-74.908,0.11l10.701,0m53.506,0l10.701,0m-74.908,0.11l10.701,0m53.506,0l10.701,0m-74.908,0.111l10.701,-0m53.506,-0l10.701,-0m-74.908,0.11l10.701,-0m53.506,-0l10.701,-0m-74.908,0.11l10.701,-0m53.506,-0l10.701,-0m-74.908,0.11l10.701,-0m53.506,-0l10.701,-0m-74.908,0.11l10.701,-0m53.506,-0l10.701,-0m-74.908,0.11l10.701,-0m53.506,-0l10.701,-0m-74.908,0.11l10.701,0m53.506,0l10.701,0m-74.908,0.11l10.701,0m53.506,0l10.701,0m-74.908,0.11l10.701,0m53.506,0l10.701,0m-74.908,0.11l10.701,0m53.506,0l10.701,0m-74.908,0.11l10.701,0m53.506,0l10.701,0m-74.908,0.111l10.701,-0m53.506,-0l10.701,-0m-74.908,0.11l10.701,-0m53.506,-0l10.701,-0m-74.908,0.11l10.701,-0m53.506,-0l10.701,-0m-74.908,0.11l10.701,-0m53.506,-0l10.701,-0m-74.908,0.11l10.701,-0m53.506,-0l10.701,-0m-74.908,0.11l10.701,-0m53.506,-0l10.701,-0m-74.908,0.11l10.701,0m53.506,0l10.701,0m-74.908,0.11l10.701,0m53.506,0l10.701,0m-74.908,0.11l10.701,0m53.506,0l10.701,0m-74.908,0.11l10.701,0m53.506,0l10.701,0m-74.908,0.11l10.701,0m53.506,0l10.701,0m-74.908,0.111l10.701,-0m53.506,-0l10.701,-0m-74.908,0.11l10.701,-0m53.506,-0l10.701,-0m-74.908,0.11l10.701,-0m53.506,-0l10.701,-0m-74.908,0.11l10.701,-0m53.506,-0l10.701,-0m-74.908,0.11l10.701,-0m53.506,-0l10.701,-0m-74.908,0.11l10.701,-0m53.506,-0l10.701,-0m-74.908,0.11l10.701,0m53.506,0l10.701,0m-74.908,0.11l10.701,0m53.506,0l10.701,0m-74.908,0.11l10.701,0m53.506,0l10.701,0m-64.207,0.11l10.701,0m32.104,0l10.701,0m-53.506,0.11l10.701,0m32.104,0l10.701,0m-53.506,0.111l10.701,-0m32.104,-0l10.701,-0m-53.506,0.11l10.701,-0m32.104,-0l10.701,-0m-53.506,0.11l10.701,-0m32.104,-0l10.701,-0m-53.506,0.11l10.701,-0m32.104,-0l10.701,-0m-53.506,0.11l10.701,-0m32.104,-0l10.701,-0m-53.506,0.11l10.701,-0m32.104,-0l10.701,-0m-53.506,0.11l10.701,0m32.104,0l10.701,0m-53.506,0.11l10.701,0m32.104,0l10.701,0m-53.506,0.11l10.701,0m32.104,0l10.701,0m-53.506,0.11l10.701,0m32.104,0l10.701,0m-53.506,0.11l10.701,0m32.104,0l10.701,0m-53.506,0.111l10.701,-0m32.104,-0l10.701,-0m-53.506,0.11l10.701,-0m32.104,-0l10.701,-0m-53.506,0.11l10.701,-0m32.104,-0l10.701,-0m-53.506,0.11l10.701,-0m32.104,-0l10.701,-0m-53.506,0.11l10.701,-0m32.104,-0l10.701,-0m-53.506,0.11l10.701,0m32.104,0l10.701,0m-53.506,0.11l10.701,0m32.104,0l10.701,0m-53.506,0.11l10.701,0m32.104,0l10.701,0m-53.506,0.11l10.701,0m32.104,0l10.701,0m-53.506,0.11l10.701,0m32.104,0l10.701,0m-53.506,0.11l10.701,0m32.104,0l10.701,0m-53.506,0.111l10.701,-0m32.104,-0l10.701,-0m-53.506,0.11l10.701,-0m32.104,-0l10.701,-0m-53.506,0.11l10.701,-0m32.104,-0l10.701,-0m-53.506,0.11l10.701,-0m32.104,-0l10.701,-0m-53.506,0.11l10.701,-0m32.104,-0l10.701,-0m-53.506,0.11l10.701,0m32.104,0l10.701,0m-53.506,0.11l10.701,0m32.104,0l10.701,0m-53.506,0.11l10.701,0m32.104,0l10.701,0m-53.506,0.11l10.701,0m32.104,0l10.701,0m-53.506,0.11l10.701,0m32.104,0l10.701,0m-53.506,0.11l10.701,0m32.104,0l10.701,0m-53.506,0.111l10.701,-0m32.104,-0l10.701,-0m-53.506,0.11l10.701,-0m32.104,-0l10.701,-0m-53.506,0.11l10.701,-0m32.104,-0l10.701,-0m-53.506,0.11l10.701,-0m32.104,-0l10.701,-0m-53.506,0.11l10.701,-0m32.104,-0l10.701,-0m-53.506,0.11l10.701,0m32.104,0l10.701,0m-53.506,0.11l10.701,0m32.104,0l10.701,0m-53.506,0.11l10.701,0m32.104,0l10.701,0m-53.506,0.11l10.701,0m32.104,0l10.701,0m-53.506,0.11l10.701,0m32.104,0l10.701,0m-53.506,0.11l10.701,0m32.104,0l10.701,0m-53.506,0.111l10.701,-0m32.104,-0l10.701,-0m-53.506,0.11l10.701,-0m32.104,-0l10.701,-0m-53.506,0.11l10.701,-0m32.104,-0l10.701,-0m-53.506,0.11l10.701,-0m32.104,-0l10.701,-0m-53.506,0.11l10.701,-0m32.104,-0l10.701,-0m-53.506,0.11l10.701,0m32.104,0l10.701,0m-53.506,0.11l10.701,0m32.104,0l10.701,0m-53.506,0.11l10.701,0m32.104,0l10.701,0m-53.506,0.11l10.701,0m32.104,0l10.701,0m-53.506,0.11l10.701,0m32.104,0l10.701,0m-53.506,0.11l10.701,0m32.104,0l10.701,0m-53.506,0.111l10.701,-0m32.104,-0l10.701,-0m-53.506,0.11l10.701,-0m32.104,-0l10.701,-0m-53.506,0.11l10.701,-0m32.104,-0l10.701,-0m-53.506,0.11l10.701,-0m32.104,-0l10.701,-0m-53.506,0.11l10.701,-0m32.104,-0l10.701,-0m-53.506,0.11l10.701,0m32.104,0l10.701,0m-53.506,0.11l10.701,0m32.104,0l10.701,0m-53.506,0.11l10.701,0m32.104,0l10.701,0m-53.506,0.11l10.701,0m32.104,0l10.701,0m-53.506,0.11l10.701,0m32.104,0l10.701,0m-53.506,0.11l10.701,0m32.104,0l10.701,0m-53.506,0.111l10.701,-0m32.104,-0l10.701,-0m-53.506,0.11l10.701,-0m32.104,-0l10.701,-0m-53.506,0.11l10.701,-0m32.104,-0l10.701,-0m-53.506,0.11l10.701,-0m32.104,-0l10.701,-0m-53.506,0.11l10.701,-0m32.104,-0l10.701,-0m-53.506,0.11l10.701,0m32.104,0l10.701,0m-53.506,0.11l10.701,0m32.104,0l10.701,0m-53.506,0.11l10.701,0m32.104,0l10.701,0m-53.506,0.11l10.701,0m32.104,0l10.701,0m-53.506,0.11l10.701,0m32.104,0l10.701,0m-53.506,0.11l10.701,0m32.104,0l10.701,0m-53.506,0.111l10.701,-0m32.104,-0l10.701,-0m-53.506,0.11l10.701,-0m32.104,-0l10.701,-0m-53.506,0.11l10.701,-0m32.104,-0l10.701,-0m-53.506,0.11l10.701,-0m32.104,-0l10.701,-0m-53.506,0.11l10.701,-0m32.104,-0l10.701,-0m-53.506,0.11l10.701,0m32.104,0l10.701,0m-53.506,0.11l10.701,0m32.104,0l10.701,0m-53.506,0.11l10.701,0m32.104,0l10.701,0m-53.506,0.11l10.701,0m32.104,0l10.701,0m-53.506,0.11l10.701,0m32.104,0l10.701,0m-53.506,0.11l10.701,0m32.104,0l10.701,0m-53.506,0.111l10.701,-0m32.104,-0l10.701,-0m-53.506,0.11l10.701,-0m32.104,-0l10.701,-0m-53.506,0.11l10.701,-0m32.104,-0l10.701,-0m-53.506,0.11l10.701,-0m32.104,-0l10.701,-0m-53.506,0.11l10.701,-0m32.104,-0l10.701,-0m-53.506,0.11l10.701,0m32.104,0l10.701,0m-53.506,0.11l10.701,0m32.104,0l10.701,0m-53.506,0.11l10.701,0m32.104,0l10.701,0m-53.506,0.11l10.701,0m32.104,0l10.701,0m-53.506,0.11l10.701,0m32.104,0l10.701,0m-42.805,0.11l32.104,0m-32.104,0.111l32.104,-0m-32.104,0.11l32.104,-0m-32.104,0.11l32.104,-0m-32.104,0.11l32.104,-0m-32.104,0.11l32.104,-0m-32.104,0.11l32.104,0m-32.104,0.11l32.104,0m-32.104,0.11l32.104,0m-32.104,0.11l32.104,0m-32.104,0.11l32.104,0m-32.104,0.11l32.104,0m-32.104,0.111l32.104,-0m-32.104,0.11l32.104,-0m-32.104,0.11l32.104,-0m-32.104,0.11l32.104,-0m-32.104,0.11l32.104,-0m-32.104,0.11l32.104,0m-32.104,0.11l32.104,0m-32.104,0.11l32.104,0m-32.104,0.11l32.104,0m-32.104,0.11l32.104,0m-32.104,0.11l32.104,0m-32.104,0.111l32.104,-0m-32.104,0.11l32.104,-0m-32.104,0.11l32.104,-0m-32.104,0.11l32.104,-0m-32.104,0.11l32.104,-0m-32.104,0.11l32.104,0m-32.104,0.11l32.104,0m-32.104,0.11l32.104,0m-32.104,0.11l32.104,0m-32.104,0.11l32.104,0m-32.104,0.11l32.104,0m-32.104,0.111l32.104,-0m-32.104,0.11l32.104,-0m-32.104,0.11l32.104,-0m-32.104,0.11l32.104,-0m-32.104,0.11l32.104,-0m-32.104,0.11l32.104,0m-32.104,0.11l32.104,0m-32.104,0.11l32.104,0m-32.104,0.11l32.104,0m-32.104,0.11l32.104,0m-32.104,0.11l32.104,0m-32.104,0.111l32.104,-0m-32.104,0.11l32.104,-0m-32.104,0.11l32.104,-0m-32.104,0.11l32.104,-0m-32.104,0.11l32.104,-0m-32.104,0.11l32.104,0m-32.104,0.11l32.104,0m-32.104,0.11l32.104,0m-32.104,0.11l32.104,0m-32.104,0.11l32.104,0m-32.104,0.11l32.104,0m-32.104,0.111l32.104,-0m-32.104,0.11l32.104,-0m-32.104,0.11l32.104,-0m-32.104,0.11l32.104,-0m-32.104,0.11l32.104,-0m-32.104,0.11l32.104,0m-32.104,0.11l32.104,0m-32.104,0.11l32.104,0m-32.104,0.11l32.104,0m-32.104,0.11l32.104,0m-32.104,0.11l32.104,0m-32.104,0.111l32.104,-0m-32.104,0.11l32.104,-0m-32.104,0.11l32.104,-0m-32.104,0.11l32.104,-0m-32.104,0.11l32.104,-0m-32.104,0.11l32.104,0m-32.104,0.11l32.104,0m-32.104,0.11l32.104,0m-32.104,0.11l32.104,0m-32.104,0.11l32.104,0m-32.104,0.11l32.104,0m-32.104,0.111l32.104,-0m-32.104,0.11l32.104,-0m-32.104,0.11l32.104,-0m-32.104,0.11l32.104,-0m-32.104,0.11l32.104,-0m-32.104,0.11l32.104,0m-32.104,0.11l32.104,0m-32.104,0.11l32.104,0m-32.104,0.11l32.104,0m-32.104,0.11l32.104,0m-32.104,0.11l32.104,0m-32.104,0.111l32.104,-0m-32.104,0.11l32.104,-0m-32.104,0.11l32.104,-0m-32.104,0.11l32.104,-0m-32.104,0.11l32.104,-0m-32.104,0.11l32.104,0m-32.104,0.11l32.104,0m-32.104,0.11l32.104,0m-32.104,0.11l32.104,0m-32.104,0.11l32.104,0m-32.104,0.11l32.104,0" style="fill-rule:nonzero;stroke:#4c35de;stroke-width:0.11px;"/><path d="M58.649,31.028l10.702,-0m-10.702,0.11l10.702,-0m-10.702,0.11l10.702,-0m-10.702,0.11l10.702,0m-10.702,0.11l10.702,0m-10.702,0.11l10.702,0m-10.702,0.11l10.702,0m-10.702,0.11l10.702,0m-10.702,0.11l10.702,0m-10.702,0.111l10.702,-0m-10.702,0.11l10.702,-0m-10.702,0.11l10.702,-0m-10.702,0.11l10.702,-0m-10.702,0.11l10.702,-0m-10.702,0.11l10.702,0m-10.702,0.11l10.702,0m-10.702,0.11l10.702,0m-10.702,0.11l10.702,0m-10.702,0.11l10.702,0m-10.702,0.11l10.702,0m-10.702,0.111l10.702,-0m-10.702,0.11l10.702,-0m-10.702,0.11l10.702,-0m-10.702,0.11l10.702,-0m-10.702,0.11l10.702,-0m-10.702,0.11l10.702,0m-10.702,0.11l10.702,0m-10.702,0.11l10.702,0m-10.702,0.11l10.702,0m-10.702,0.11l10.702,0m-10.702,0.11l10.702,0m-10.702,0.111l10.702,-0m-10.702,0.11l10.702,-0m-10.702,0.11l10.702,-0m-10.702,0.11l10.702,-0m-10.702,0.11l10.702,-0m-10.702,0.11l10.702,0m-10.702,0.11l10.702,0m-10.702,0.11l10.702,0m-10.702,0.11l10.702,0m-10.702,0.11l10.702,0m-10.702,0.11l10.702,0m-10.702,0.111l10.702,-0m-10.702,0.11l10.702,-0m-10.702,0.11l10.702,-0m-10.702,0.11l10.702,-0m-10.702,0.11l10.702,-0m-10.702,0.11l10.702,0m-10.702,0.11l10.702,0m-10.702,0.11l10.702,0m-10.702,0.11l10.702,0m-10.702,0.11l10.702,0m-10.702,0.11l10.702,0m-10.702,0.111l10.702,-0m-10.702,0.11l10.702,-0m-10.702,0.11l10.702,-0m-10.702,0.11l10.702,-0m-10.702,0.11l10.702,-0m-10.702,0.11l10.702,0m-10.702,0.11l10.702,0m-10.702,0.11l10.702,0m-10.702,0.11l10.702,0m-10.702,0.11l10.702,0m-10.702,0.11l10.702,0m-10.702,0.111l10.702,-0m-10.702,0.11l10.702,-0m-10.702,0.11l10.702,-0m-10.702,0.11l10.702,-0m-10.702,0.11l10.702,-0m-10.702,0.11l10.702,0m-10.702,0.11l10.702,0m-10.702,0.11l10.702,0m-10.702,0.11l10.702,0m-10.702,0.11l10.702,0m-10.702,0.11l10.702,0m-10.702,0.111l10.702,-0m-10.702,0.11l10.702,-0m-10.702,0.11l10.702,-0m-10.702,0.11l10.702,-0m-10.702,0.11l10.702,-0m-10.702,0.11l10.702,0m-10.702,0.11l10.702,0m-10.702,0.11l10.702,0m-10.702,0.11l10.702,0m-10.702,0.11l10.702,0m-10.702,0.11l10.702,0m-10.702,0.111l10.702,-0m-10.702,0.11l10.702,-0m-10.702,0.11l10.702,-0m-10.702,0.11l10.702,-0m-10.702,0.11l10.702,-0m-10.702,0.11l10.702,0m-10.702,0.11l10.702,0m-10.702,0.11l10.702,0m-10.702,0.11l10.702,0m-10.702,0.11l10.702,0m-10.702,0.11l10.702,0m-10.702,0.111l10.702,-0m-10.702,0.11l10.702,-0m-10.702,0.11l10.702,-0m-0,22.128l10.701,0m-10.701,0.11l10.701,0m-10.701,0.11l10.701,0m-10.701,0.11l10.701,0m-10.701,0.11l10.701,0m-10.701,0.111l10.701,-0m-10.701,0.11l10.701,-0m-10.701,0.11l10.701,-0m-10.701,0.11l10.701,-0m-10.701,0.11l10.701,-0m-10.701,0.11l10.701,-0m-10.701,0.11l10.701,0m-10.701,0.11l10.701,0m-10.701,0.11l10.701,0m-10.701,0.11l10.701,0m-10.701,0.11l10.701,0m-10.701,0.111l10.701,-0m-10.701,0.11l10.701,-0m-10.701,0.11l10.701,-0m-10.701,0.11l10.701,-0m-10.701,0.11l10.701,-0m-10.701,0.11l10.701,-0m-10.701,0.11l10.701,0m-10.701,0.11l10.701,0m-10.701,0.11l10.701,0m-10.701,0.11l10.701,0m-10.701,0.11l10.701,0m-10.701,0.111l10.701,-0m-10.701,0.11l10.701,-0m-10.701,0.11l10.701,-0m-10.701,0.11l10.701,-0m-10.701,0.11l10.701,-0m-10.701,0.11l10.701,-0m-10.701,0.11l10.701,0m-10.701,0.11l10.701,0m-10.701,0.11l10.701,0m-10.701,0.11l10.701,0m-10.701,0.11l10.701,0m-10.701,0.111l10.701,-0m-10.701,0.11l10.701,-0m-10.701,0.11l10.701,-0m-10.701,0.11l10.701,-0m-10.701,0.11l10.701,-0m-10.701,0.11l10.701,-0m-10.701,0.11l10.701,0m-10.701,0.11l10.701,0m-10.701,0.11l10.701,0m-10.701,0.11l10.701,0m-10.701,0.11l10.701,0m-10.701,0.111l10.701,-0m-10.701,0.11l10.701,-0m-10.701,0.11l10.701,-0m-10.701,0.11l10.701,-0m-10.701,0.11l10.701,-0m-10.701,0.11l10.701,-0m-10.701,0.11l10.701,0m-10.701,0.11l10.701,0m-10.701,0.11l10.701,0m-10.701,0.11l10.701,0m-10.701,0.11l10.701,0m-10.701,0.111l10.701,-0m-10.701,0.11l10.701,-0m-10.701,0.11l10.701,-0m-10.701,0.11l10.701,-0m-10.701,0.11l10.701,-0m-10.701,0.11l10.701,-0m-10.701,0.11l10.701,0m-10.701,0.11l10.701,0m-10.701,0.11l10.701,0m-10.701,0.11l10.701,0m-10.701,0.11l10.701,0m-10.701,0.111l10.701,-0m-10.701,0.11l10.701,-0m-10.701,0.11l10.701,-0m-10.701,0.11l10.701,-0m-10.701,0.11l10.701,-0m-10.701,0.11l10.701,-0m-10.701,0.11l10.701,0m-10.701,0.11l10.701,0m-10.701,0.11l10.701,0m-10.701,0.11l10.701,0m-10.701,0.11l10.701,0m-10.701,0.111l10.701,-0m-10.701,0.11l10.701,-0m-10.701,0.11l10.701,-0m-10.701,0.11l10.701,-0m-10.701,0.11l10.701,-0m-10.701,0.11l10.701,-0m-10.701,0.11l10.701,0m-10.701,0.11l10.701,0m-10.701,0.11l10.701,0m-10.701,0.11l10.701,0m-10.701,0.11l10.701,0m-10.701,0.111l10.701,-0m-10.701,0.11l10.701,-0m-10.701,0.11l10.701,-0m-10.701,0.11l10.701,-0m-10.701,0.11l10.701,-0m-10.701,0.11l10.701,-0m-10.701,0.11l10.701,0m-42.805,0.11l10.701,0m21.403,0l10.701,0m-42.805,0.11l10.701,0m21.403,0l10.701,0m-42.805,0.11l10.701,0m21.403,0l10.701,0m-42.805,0.11l10.701,0m21.403,0l10.701,0m-42.805,0.111l10.701,-0m21.403,-0l10.701,-0m-42.805,0.11l10.701,-0m21.403,-0l10.701,-0m-42.805,0.11l10.701,-0m21.403,-0l10.701,-0m-42.805,0.11l10.701,-0m21.403,-0l10.701,-0m-42.805,0.11l10.701,-0m21.403,-0l10.701,-0m-42.805,0.11l10.701,-0m21.403,-0l10.701,-0m-42.805,0.11l10.701,0m21.403,0l10.701,0m-42.805,0.11l10.701,0m21.403,0l10.701,0m-42.805,0.11l10.701,0m21.403,0l10.701,0m-42.805,0.11l10.701,0m21.403,0l10.701,0m-42.805,0.11l10.701,0m21.403,0l10.701,0m-42.805,0.111l10.701,-0m21.403,-0l10.701,-0m-42.805,0.11l10.701,-0m21.403,-0l10.701,-0m-42.805,0.11l10.701,-0m21.403,-0l10.701,-0m-42.805,0.11l10.701,-0m21.403,-0l10.701,-0m-42.805,0.11l10.701,-0m21.403,-0l10.701,-0m-42.805,0.11l10.701,-0m21.403,-0l10.701,-0m-42.805,0.11l10.701,0m21.403,0l10.701,0m-42.805,0.11l10.701,0m21.403,0l10.701,0m-42.805,0.11l10.701,0m21.403,0l10.701,0m-42.805,0.11l10.701,0m21.403,0l10.701,0m-42.805,0.11l10.701,0m21.403,0l10.701,0m-42.805,0.111l10.701,-0m21.403,-0l10.701,-0m-42.805,0.11l10.701,-0m21.403,-0l10.701,-0m-42.805,0.11l10.701,-0m21.403,-0l10.701,-0m-42.805,0.11l10.701,-0m21.403,-0l10.701,-0m-42.805,0.11l10.701,-0m21.403,-0l10.701,-0m-42.805,0.11l10.701,-0m21.403,-0l10.701,-0m-42.805,0.11l10.701,0m21.403,0l10.701,0m-42.805,0.11l10.701,0m21.403,0l10.701,0m-42.805,0.11l10.701,0m21.403,0l10.701,0m-42.805,0.11l10.701,0m21.403,0l10.701,0m-42.805,0.11l10.701,0m21.403,0l10.701,0m-42.805,0.111l10.701,-0m21.403,-0l10.701,-0m-42.805,0.11l10.701,-0m21.403,-0l10.701,-0m-42.805,0.11l10.701,-0m21.403,-0l10.701,-0m-42.805,0.11l10.701,-0m21.403,-0l10.701,-0m-42.805,0.11l10.701,-0m21.403,-0l10.701,-0m-42.805,0.11l10.701,-0m21.403,-0l10.701,-0m-42.805,0.11l10.701,0m21.403,0l10.701,0m-42.805,0.11l10.701,0m21.403,0l10.701,0m-42.805,0.11l10.701,0m21.403,0l10.701,0m-42.805,0.11l10.701,0m21.403,0l10.701,0m-42.805,0.11l10.701,0m21.403,0l10.701,0m-42.805,0.111l10.701,-0m21.403,-0l10.701,-0m-42.805,0.11l10.701,-0m21.403,-0l10.701,-0m-42.805,0.11l10.701,-0m21.403,-0l10.701,-0m-42.805,0.11l10.701,-0m21.403,-0l10.701,-0m-42.805,0.11l10.701,-0m21.403,-0l10.701,-0m-42.805,0.11l10.701,-0m21.403,-0l10.701,-0m-42.805,0.11l10.701,0m21.403,0l10.701,0m-42.805,0.11l10.701,0m21.403,0l10.701,0m-42.805,0.11l10.701,0m21.403,0l10.701,0m-42.805,0.11l10.701,0m21.403,0l10.701,0m-42.805,0.11l10.701,0m21.403,0l10.701,0m-42.805,0.111l10.701,-0m21.403,-0l10.701,-0m-42.805,0.11l10.701,-0m21.403,-0l10.701,-0m-42.805,0.11l10.701,-0m21.403,-0l10.701,-0m-42.805,0.11l10.701,-0m21.403,-0l10.701,-0m-42.805,0.11l10.701,-0m21.403,-0l10.701,-0m-42.805,0.11l10.701,-0m21.403,-0l10.701,-0m-42.805,0.11l10.701,0m21.403,0l10.701,0m-42.805,0.11l10.701,0m21.403,0l10.701,0m-42.805,0.11l10.701,0m21.403,0l10.701,0m-42.805,0.11l10.701,0m21.403,0l10.701,0m-42.805,0.11l10.701,0m21.403,0l10.701,0m-42.805,0.111l10.701,-0m21.403,-0l10.701,-0m-42.805,0.11l10.701,-0m21.403,-0l10.701,-0m-42.805,0.11l10.701,-0m21.403,-0l10.701,-0m-42.805,0.11l10.701,-0m21.403,-0l10.701,-0m-42.805,0.11l10.701,-0m21.403,-0l10.701,-0m-42.805,0.11l10.701,-0m21.403,-0l10.701,-0m-42.805,0.11l10.701,0m21.403,0l10.701,0m-42.805,0.11l10.701,0m21.403,0l10.701,0m-42.805,0.11l10.701,0m21.403,0l10.701,0m-42.805,0.11l10.701,0m21.403,0l10.701,0m-42.805,0.11l10.701,0m21.403,0l10.701,0m-42.805,0.111l10.701,-0m21.403,-0l10.701,-0m-42.805,0.11l10.701,-0m21.403,-0l10.701,-0m-42.805,0.11l10.701,-0m21.403,-0l10.701,-0m-42.805,0.11l10.701,-0m21.403,-0l10.701,-0m-42.805,0.11l10.701,-0m21.403,-0l10.701,-0m-42.805,0.11l10.701,-0m21.403,-0l10.701,-0m-42.805,0.11l10.701,0m21.403,0l10.701,0m-42.805,0.11l10.701,0m21.403,0l10.701,0m-42.805,0.11l10.701,0m21.403,0l10.701,0m-42.805,0.11l10.701,0m21.403,0l10.701,0m-42.805,0.11l10.701,0m21.403,0l10.701,0m-42.805,0.111l10.701,-0m21.403,-0l10.701,-0m-42.805,0.11l10.701,-0m21.403,-0l10.701,-0m-42.805,0.11l10.701,-0m21.403,-0l10.701,-0m-42.805,0.11l10.701,-0m21.403,-0l10.701,-0m-42.805,0.11l10.701,-0m21.403,-0l10.701,-0m-42.805,0.11l10.701,-0m21.403,-0l10.701,-0m-42.805,0.11l10.701,0m21.403,0l10.701,0m-42.805,0.11l10.701,0m21.403,0l10.701,0" style="fill-rule:nonzero;stroke:#e2e1e8;stroke-width:0.11px;"/><path d="M80.052,75.064l10.701,0m-10.701,0.11l10.701,0m-10.701,0.11l10.701,0m-10.701,0.11l10.701,0m-10.701,0.111l10.701,-0m-10.701,0.11l10.701,-0m-10.701,0.11l10.701,-0m-10.701,0.11l10.701,-0m-10.701,0.11l10.701,-0m-10.701,0.11l10.701,-0m-10.701,0.11l10.701,0m-10.701,0.11l10.701,0m-10.701,0.11l10.701,0m-10.701,0.11l10.701,0m-10.701,0.11l10.701,0m-10.701,0.111l10.701,-0m-10.701,0.11l10.701,-0m-10.701,0.11l10.701,-0m-10.701,0.11l10.701,-0m-10.701,0.11l10.701,-0m-10.701,0.11l10.701,-0m-10.701,0.11l10.701,0m-10.701,0.11l10.701,0m-10.701,0.11l10.701,0m-10.701,0.11l10.701,0m-10.701,0.11l10.701,0m-10.701,0.111l10.701,-0m-10.701,0.11l10.701,-0m-10.701,0.11l10.701,-0m-10.701,0.11l10.701,-0m-10.701,0.11l10.701,-0m-10.701,0.11l10.701,-0m-10.701,0.11l10.701,0m-10.701,0.11l10.701,0m-10.701,0.11l10.701,0m-10.701,0.11l10.701,0m-10.701,0.11l10.701,0m-10.701,0.111l10.701,-0m-10.701,0.11l10.701,-0m-10.701,0.11l10.701,-0m-10.701,0.11l10.701,-0m-10.701,0.11l10.701,-0m-10.701,0.11l10.701,-0m-10.701,0.11l10.701,0m-10.701,0.11l10.701,0m-10.701,0.11l10.701,0m-10.701,0.11l10.701,0m-10.701,0.11l10.701,0m-10.701,0.111l10.701,-0m-10.701,0.11l10.701,-0m-10.701,0.11l10.701,-0m-10.701,0.11l10.701,-0m-10.701,0.11l10.701,-0m-10.701,0.11l10.701,-0m-10.701,0.11l10.701,0m-10.701,0.11l10.701,0m-10.701,0.11l10.701,0m-10.701,0.11l10.701,0m-10.701,0.11l10.701,0m-10.701,0.111l10.701,-0m-10.701,0.11l10.701,-0m-10.701,0.11l10.701,-0m-10.701,0.11l10.701,-0m-10.701,0.11l10.701,-0m-10.701,0.11l10.701,-0m-10.701,0.11l10.701,0m-10.701,0.11l10.701,0m-10.701,0.11l10.701,0m-10.701,0.11l10.701,0m-10.701,0.11l10.701,0m-10.701,0.111l10.701,-0m-10.701,0.11l10.701,-0m-10.701,0.11l10.701,-0m-10.701,0.11l10.701,-0m-10.701,0.11l10.701,-0m-10.701,0.11l10.701,-0m-10.701,0.11l10.701,0m-10.701,0.11l10.701,0m-10.701,0.11l10.701,0m-10.701,0.11l10.701,0m-10.701,0.11l10.701,0m-10.701,0.111l10.701,-0m-10.701,0.11l10.701,-0m-10.701,0.11l10.701,-0m-10.701,0.11l10.701,-0m-10.701,0.11l10.701,-0m-10.701,0.11l10.701,-0m-10.701,0.11l10.701,0m-10.701,0.11l10.701,0m-10.701,0.11l10.701,0m-10.701,0.11l10.701,0m-10.701,0.11l10.701,0m-10.701,0.111l10.701,-0m-10.701,0.11l10.701,-0m-10.701,0.11l10.701,-0m-10.701,0.11l10.701,-0m-10.701,0.11l10.701,-0m-10.701,0.11l10.701,-0m-10.701,0.11l10.701,0m-10.701,0.11l10.701,0m-21.402,0.11l21.402,0m-21.402,0.11l21.402,0m-21.402,0.11l21.402,0m-21.402,0.111l21.402,-0m-21.402,0.11l21.402,-0m-21.402,0.11l21.402,-0m-21.402,0.11l21.402,-0m-21.402,0.11l21.402,-0m-21.402,0.11l21.402,-0m-21.402,0.11l21.402,0m-21.402,0.11l21.402,0m-21.402,0.11l21.402,0m-21.402,0.11l21.402,0m-21.402,0.11l21.402,0m-21.402,0.111l21.402,-0m-21.402,0.11l21.402,-0m-21.402,0.11l21.402,-0m-21.402,0.11l21.402,-0m-21.402,0.11l21.402,-0m-21.402,0.11l21.402,-0m-21.402,0.11l21.402,0m-21.402,0.11l21.402,0m-21.402,0.11l21.402,0m-21.402,0.11l21.402,0m-21.402,0.11l21.402,0m-21.402,0.111l21.402,-0m-21.402,0.11l21.402,-0m-21.402,0.11l21.402,-0m-21.402,0.11l21.402,-0m-21.402,0.11l21.402,-0m-21.402,0.11l21.402,-0m-21.402,0.11l21.402,0m-21.402,0.11l21.402,0m-21.402,0.11l21.402,0m-21.402,0.11l21.402,0m-21.402,0.11l21.402,0m-21.402,0.111l21.402,-0m-21.402,0.11l21.402,-0m-21.402,0.11l21.402,-0m-21.402,0.11l21.402,-0m-21.402,0.11l21.402,-0m-21.402,0.11l21.402,-0m-21.402,0.11l21.402,0m-21.402,0.11l21.402,0m-21.402,0.11l21.402,0m-21.402,0.11l21.402,0m-21.402,0.11l21.402,0m-21.402,0.111l21.402,-0m-21.402,0.11l21.402,-0m-21.402,0.11l21.402,-0m-21.402,0.11l21.402,-0m-21.402,0.11l21.402,-0m-21.402,0.11l21.402,-0m-21.402,0.11l21.402,0m-21.402,0.11l21.402,0m-21.402,0.11l21.402,0m-21.402,0.11l21.402,0m-21.402,0.11l21.402,0m-21.402,0.111l21.402,-0m-21.402,0.11l21.402,-0m-21.402,0.11l21.402,-0m-21.402,0.11l21.402,-0m-21.402,0.11l21.402,-0m-21.402,0.11l21.402,-0m-21.402,0.11l21.402,0m-21.402,0.11l21.402,0m-21.402,0.11l21.402,0m-21.402,0.11l21.402,0m-21.402,0.11l21.402,0m-21.402,0.111l21.402,-0m-21.402,0.11l21.402,-0m-21.402,0.11l21.402,-0m-21.402,0.11l21.402,-0m-21.402,0.11l21.402,-0m-21.402,0.11l21.402,-0m-21.402,0.11l21.402,0m-21.402,0.11l21.402,0m-21.402,0.11l21.402,0m-21.402,0.11l21.402,0m-21.402,0.11l21.402,0m-21.402,0.111l21.402,-0m-21.402,0.11l21.402,-0m-21.402,0.11l21.402,-0m-21.402,0.11l21.402,-0m-21.402,0.11l21.402,-0m-21.402,0.11l21.402,-0m-21.402,0.11l21.402,0m-21.402,0.11l21.402,0m-21.402,0.11l21.402,0m-21.402,0.11l21.402,0m-21.402,0.11l21.402,0m-21.402,0.111l21.402,-0m-21.402,0.11l21.402,-0m-21.402,0.11l21.402,-0m-21.402,0.11l21.402,-0m-21.402,0.11l21.402,-0m-21.402,0.11l21.402,-0m-21.402,0.11l21.402,0m-21.402,0.11l21.402,0m-21.402,0.11l21.402,0m-32.104,0.11l21.403,0m-21.403,0.11l21.403,0m-21.403,0.111l21.403,-0m-21.403,0.11l21.403,-0m-21.403,0.11l21.403,-0m-21.403,0.11l21.403,-0m-21.403,0.11l21.403,-0m-21.403,0.11l21.403,-0m-21.403,0.11l21.403,0m-21.403,0.11l21.403,0m-21.403,0.11l21.403,0m-21.403,0.11l21.403,0m-21.403,0.11l21.403,0m-21.403,0.111l21.403,-0m-21.403,0.11l21.403,-0m-21.403,0.11l21.403,-0m-21.403,0.11l21.403,-0m-21.403,0.11l21.403,-0m-21.403,0.11l21.403,0m-21.403,0.11l21.403,0m-21.403,0.11l21.403,0m-21.403,0.11l21.403,0m-21.403,0.11l21.403,0m-21.403,0.11l21.403,0m-21.403,0.111l21.403,-0m-21.403,0.11l21.403,-0m-21.403,0.11l21.403,-0m-21.403,0.11l21.403,-0m-21.403,0.11l21.403,-0m-21.403,0.11l21.403,0m-21.403,0.11l21.403,0m-21.403,0.11l21.403,0m-21.403,0.11l21.403,0m-21.403,0.11l21.403,0m-21.403,0.11l21.403,0m-21.403,0.111l21.403,-0m-21.403,0.11l21.403,-0m-21.403,0.11l21.403,-0m-21.403,0.11l21.403,-0m-21.403,0.11l21.403,-0m-21.403,0.11l21.403,0m-21.403,0.11l21.403,0m-21.403,0.11l21.403,0m-21.403,0.11l21.403,0m-21.403,0.11l21.403,0m-21.403,0.11l21.403,0m-21.403,0.111l21.403,-0m-21.403,0.11l21.403,-0m-21.403,0.11l21.403,-0m-21.403,0.11l21.403,-0m-21.403,0.11l21.403,-0m-21.403,0.11l21.403,0m-21.403,0.11l21.403,0m-21.403,0.11l21.403,0m-21.403,0.11l21.403,0m-21.403,0.11l21.403,0m-21.403,0.11l21.403,0m-21.403,0.111l21.403,-0m-21.403,0.11l21.403,-0m-21.403,0.11l21.403,-0m-21.403,0.11l21.403,-0m-21.403,0.11l21.403,-0m-21.403,0.11l21.403,0m-21.403,0.11l21.403,0m-21.403,0.11l21.403,0m-21.403,0.11l21.403,0m-21.403,0.11l21.403,0m-21.403,0.11l21.403,0m-21.403,0.111l21.403,-0m-21.403,0.11l21.403,-0m-21.403,0.11l21.403,-0m-21.403,0.11l21.403,-0m-21.403,0.11l21.403,-0m-21.403,0.11l21.403,0m-21.403,0.11l21.403,0m-21.403,0.11l21.403,0m-21.403,0.11l21.403,0m-21.403,0.11l21.403,0m-21.403,0.11l21.403,0m-21.403,0.111l21.403,-0m-21.403,0.11l21.403,-0m-21.403,0.11l21.403,-0m-21.403,0.11l21.403,-0m-21.403,0.11l21.403,-0m-21.403,0.11l21.403,0m-21.403,0.11l21.403,0m-21.403,0.11l21.403,0m-21.403,0.11l21.403,0m-21.403,0.11l21.403,0m-21.403,0.11l21.403,0m-21.403,0.111l21.403,-0m-21.403,0.11l21.403,-0m-21.403,0.11l21.403,-0m-21.403,0.11l21.403,-0m-21.403,0.11l21.403,-0m-21.403,0.11l21.403,0m-21.403,0.11l21.403,0m-21.403,0.11l21.403,0m-21.403,0.11l21.403,0m-21.403,0.11l21.403,0" style="fill-rule:nonzero;stroke:#a59aee;stroke-width:0.11px;"/></g></svg>